<svg xmlns="http://www.w3.org/2000/svg" viewBox="0 0 800 800">
  <defs>
    <linearGradient id="bg" x1="0" y1="0" x2="1" y2="1"><stop stop-color="#102c49"/><stop offset="1" stop-color="#020406"/></linearGradient>
    <linearGradient id="b" x1="0" y1="0" x2="1" y2="1"><stop stop-color="#a7d5ff"/><stop offset="1" stop-color="#397bb7"/></linearGradient>
    <filter id="g"><feGaussianBlur stdDeviation="6" result="q"/><feMerge><feMergeNode in="q"/><feMergeNode in="SourceGraphic"/></feMerge></filter>
  </defs>
  <rect width="800" height="800" fill="url(#bg)"/>
  <g stroke="#6fa9dc" stroke-width="4" fill="none" opacity=".8"><path d="M235 235h130M435 235h130M235 400h130M435 400h130M235 565h130M435 565h130"/><path d="M300 300v35M500 300v35M300 465v35M500 465v35"/></g>
  <g fill="url(#b)" filter="url(#g)"><rect x="150" y="170" width="150" height="130" rx="28"/><rect x="500" y="170" width="150" height="130" rx="28"/><rect x="150" y="335" width="150" height="130" rx="28"/><rect x="500" y="335" width="150" height="130" rx="28"/><rect x="150" y="500" width="150" height="130" rx="28"/><rect x="500" y="500" width="150" height="130" rx="28"/><circle cx="400" cy="400" r="78"/></g>
  <g stroke="#e0f0ff" stroke-width="8" fill="none"><path d="M370 400h60M400 370v60"/></g>
</svg>
